<?xml version="1.0" standalone="no"?>
<!DOCTYPE svg PUBLIC "-//W3C//DTD SVG 20010904//EN"
 "http://www.w3.org/TR/2001/REC-SVG-20010904/DTD/svg10.dtd">
<svg version="1.0" xmlns="http://www.w3.org/2000/svg"
 width="1200.000000pt" height="1200.000000pt" viewBox="0 0 1200.000000 1200.000000"
 preserveAspectRatio="xMidYMid meet">
<metadata>
Created by potrace 1.11, written by Peter Selinger 2001-2013
</metadata>
<g transform="translate(0.000000,1200.000000) scale(0.100000,-0.100000)"
fill="#000000" stroke="none">
<path d="M0 9156 c0 -2732 1 -2845 18 -2850 33 -11 526 -96 702 -121 815 -117
1339 -159 2010 -159 411 0 646 10 933 40 82 9 158 14 168 11 10 -3 17 -1 13 4
-3 5 3 9 13 9 10 0 55 4 101 10 48 5 92 6 106 0 12 -4 29 -5 36 0 10 6 8 9 -6
13 -14 3 -12 5 8 6 14 0 35 4 45 7 15 5 15 4 3 -5 -12 -9 -9 -11 15 -11 20 0
26 3 17 9 -9 5 19 14 75 25 61 13 88 15 91 7 2 -6 16 -11 30 -11 l27 1 -25 15
c-25 15 -25 15 10 9 19 -4 59 -10 87 -14 64 -9 81 -21 21 -14 -25 3 -63 -2
-93 -11 l-50 -16 65 4 65 4 -60 -13 c-33 -8 -73 -17 -88 -21 -20 -5 -34 -1
-49 12 -15 14 -22 16 -25 7 -3 -7 -13 -13 -23 -13 -10 0 -27 -3 -37 -7 -15 -6
-13 -8 12 -13 21 -4 -9 -12 -100 -24 -180 -26 -234 -33 -261 -31 -12 0 -20 -3
-18 -7 3 -4 -5 -8 -18 -8 -13 0 -84 -7 -158 -15 -569 -61 -1355 -58 -2135 10
-99 8 -214 19 -255 25 -41 5 -100 12 -130 15 -103 11 -285 34 -355 45 -38 6
-117 17 -175 25 -58 8 -136 20 -175 26 -38 6 -94 11 -122 11 -29 0 -51 3 -49
7 5 8 -18 11 -96 12 -38 1 -56 5 -51 12 4 6 1 7 -7 2 -7 -4 -16 -2 -21 6 -7
11 -9 10 -9 -4 0 -15 -6 -16 -40 -11 l-40 7 0 -651 0 -650 48 -6 c55 -7 400
-30 717 -48 342 -20 1443 -16 1775 5 918 60 1651 175 2345 369 257 72 264 74
330 98 33 12 87 30 120 40 120 38 274 96 450 172 99 43 116 50 249 112 65 31
123 53 130 49 6 -3 8 -2 3 2 -12 14 70 57 96 50 14 -4 18 -3 9 3 -9 6 5 18 50
42 35 18 87 48 116 67 29 18 55 33 58 33 10 0 312 198 338 222 23 21 32 22 40
6 3 -8 4 -6 3 3 -1 10 24 36 63 65 36 27 74 56 84 66 17 16 21 16 48 2 18 -9
27 -11 23 -4 -4 7 -1 10 8 8 8 -2 35 16 60 38 25 23 48 40 51 37 6 -6 -7 -20
-81 -83 -45 -38 -61 -47 -74 -39 -11 6 -20 5 -24 -1 -3 -6 -18 -7 -33 -4 -19
4 -23 3 -13 -4 10 -7 10 -11 1 -17 -7 -4 -16 -1 -21 6 -5 8 -9 9 -9 4 0 -16
38 -46 45 -35 4 6 0 10 -7 10 -8 0 -6 5 5 11 9 5 22 7 27 4 6 -3 10 1 10 10 0
9 5 13 10 10 16 -10 -8 -35 -26 -28 -9 3 -12 0 -9 -9 7 -18 -51 -62 -72 -54
-11 5 -14 2 -9 -10 5 -12 2 -15 -9 -10 -9 3 -14 2 -11 -3 3 -5 -1 -14 -9 -21
-8 -7 -15 -9 -15 -5 0 5 -8 -1 -18 -11 -19 -21 -42 -38 -168 -122 -128 -85
-271 -170 -409 -242 -66 -35 -124 -66 -130 -70 -27 -18 -378 -175 -514 -230
-175 -70 -601 -213 -771 -259 -312 -85 -419 -109 -735 -171 -633 -124 -1172
-183 -2035 -225 -36 -2 -164 -6 -285 -10 -121 -5 -223 -12 -226 -17 -3 -5 -32
-11 -64 -14 -33 -2 -62 -9 -66 -15 -4 -7 -14 -9 -22 -6 -9 3 -30 2 -46 -3 -17
-5 -54 -10 -83 -11 -29 -1 -57 -5 -63 -9 -5 -3 -19 -6 -30 -6 -11 1 -22 -2
-25 -6 -3 -4 -40 -8 -83 -10 -42 -2 -77 -6 -77 -10 0 -5 -18 -8 -41 -8 -25 0
-38 4 -34 10 6 10 -15 10 -25 0 -12 -13 -60 -29 -60 -20 0 5 -15 3 -33 -4 -17
-8 -46 -12 -62 -9 -17 3 -55 -1 -85 -7 -30 -7 -98 -16 -150 -21 -52 -4 -111
-11 -130 -13 -19 -3 -122 -9 -227 -12 l-193 -7 0 -565 0 -565 232 7 c400 12
734 26 983 41 2291 145 4194 628 5586 1420 453 258 881 571 1194 875 521 505
869 1016 1094 1610 18 47 39 101 46 120 43 110 136 472 155 605 31 216 37 271
29 280 -5 5 -9 14 -9 20 0 5 5 3 11 -5 8 -11 9 1 5 45 -4 35 -3 54 3 47 18
-29 23 29 29 301 5 268 4 277 -15 277 -18 0 -19 -7 -15 -127 2 -71 -1 -153 -6
-183 -8 -48 -10 -34 -12 100 -2 163 -5 203 -19 208 -4 1 -17 9 -27 17 -18 14
-18 14 9 15 25 0 27 3 27 39 0 22 5 41 11 43 7 2 7 11 0 28 l-10 25 0 -27 c-1
-26 -4 -28 -41 -28 l-40 0 0 40 c0 22 -4 40 -10 40 -5 0 -10 -18 -10 -40 l0
-40 -40 0 c-22 0 -40 5 -40 11 0 6 -7 17 -15 25 -8 9 -15 12 -15 8 0 -3 -7 -1
-15 6 -19 16 -19 30 0 30 11 0 15 11 15 40 0 38 -2 40 -30 40 -27 0 -29 2 -24
29 4 16 1 32 -5 35 -6 4 -11 27 -11 52 0 42 -1 44 -30 44 -28 0 -30 2 -30 40
0 22 -4 40 -10 40 -5 0 -10 13 -10 28 0 16 -3 32 -6 35 -4 4 -6 45 -5 92 l2
85 -25 0 c-25 0 -26 2 -26 65 0 37 -4 65 -10 65 -5 0 -10 25 -10 55 0 42 -3
55 -15 55 -11 0 -15 11 -15 40 0 29 -4 40 -15 40 -10 0 -15 10 -15 28 0 31
-19 69 -21 42 0 -8 -5 -2 -9 14 -5 16 -6 34 -3 39 4 6 1 7 -6 3 -8 -5 -14 0
-18 13 -3 12 -9 21 -14 21 -5 0 -8 3 -7 8 1 4 -4 30 -11 59 -7 28 -14 62 -16
75 -6 39 -33 117 -49 139 -8 12 -12 28 -9 35 3 8 -1 14 -11 14 -9 0 -16 5 -16
10 0 6 7 10 15 10 8 0 15 5 15 10 0 6 -9 10 -20 10 -11 0 -20 5 -20 10 0 6 5
10 11 10 6 0 3 7 -6 16 -21 22 -41 62 -50 102 -4 18 -13 45 -21 60 -8 15 -14
35 -14 45 0 10 -7 20 -15 23 -8 4 -13 10 -10 15 3 4 -1 24 -9 43 -8 19 -11 37
-8 41 4 4 -1 11 -10 16 -10 5 -15 16 -12 24 4 8 1 15 -6 15 -6 0 -9 4 -6 8 2
4 -2 21 -9 37 -37 80 -65 149 -65 162 0 13 -18 56 -78 181 -14 28 -29 52 -34
52 -4 0 -7 3 -7 8 4 22 -2 42 -11 37 -6 -3 -10 4 -11 17 -1 42 -14 73 -69 178
-11 19 -19 42 -20 50 0 9 -9 23 -20 33 -11 9 -20 26 -20 36 0 11 -4 22 -9 26
-5 3 -12 19 -16 36 -17 74 -50 109 -104 109 -23 0 -41 -2 -41 -4 0 -2 18 -48
39 -102 61 -153 105 -270 140 -374 18 -52 37 -104 42 -115 4 -11 28 -85 53
-165 163 -527 256 -967 301 -1425 17 -166 30 -783 16 -730 -6 25 -9 16 -16
-50 -5 -55 -10 -74 -16 -60 -14 36 -10 122 6 135 11 9 15 32 13 94 l-1 81 -7
-60 c-5 -42 -8 -3 -10 125 -1 102 -2 188 -1 192 1 12 -29 330 -39 403 -5 39
-14 104 -19 145 -10 77 -32 207 -50 295 -6 28 -18 86 -26 130 -26 131 -87 375
-94 371 -3 -2 -7 15 -8 38 -3 52 -57 209 -68 199 -4 -5 -5 -2 -1 5 9 14 -2 74
-12 68 -4 -2 -8 14 -9 35 -2 21 -9 49 -17 62 -7 12 -16 38 -20 57 -6 32 -27
92 -61 175 -7 17 -21 55 -31 85 -16 49 -27 81 -54 145 -4 11 -13 39 -20 63 -7
23 -17 42 -22 42 -5 0 -8 6 -7 13 1 6 -9 36 -22 64 -19 44 -28 54 -53 58 -17
3 -137 5 -266 3 -229 -3 -235 -4 -232 -23 2 -11 6 -27 9 -35 3 -8 7 -20 8 -26
2 -6 6 -21 10 -33 4 -12 2 -21 -4 -21 -6 0 -11 7 -11 15 0 8 -9 39 -21 70
l-20 55 -3665 0 -3664 0 0 -2844z m7377 2662 c-3 -8 -6 -5 -6 6 -1 11 2 17 5
13 3 -3 4 -12 1 -19z m56 -118 c33 -126 39 -163 29 -189 -5 -15 -8 -4 -9 40
-1 34 -8 71 -16 83 -7 11 -14 34 -15 50 -1 16 -6 34 -11 40 -4 6 -11 31 -15
56 -9 67 8 30 37 -80z m44 -222 c-3 -7 -5 -2 -5 12 0 14 2 19 5 13 2 -7 2 -19
0 -25z m24 -65 c11 -53 19 -102 13 -78 -4 11 -11 26 -17 34 -6 7 -10 28 -9 45
2 24 0 28 -7 16 -12 -17 -14 -10 -5 15 9 21 15 13 25 -32z m26 -160 c-3 -10
-5 -2 -5 17 0 19 2 27 5 18 2 -10 2 -26 0 -35z m18 -71 c-3 -3 -5 1 -5 9 0 12
-2 11 -11 -1 -9 -12 -10 -12 -5 3 3 10 6 24 7 30 0 7 5 1 10 -12 5 -13 7 -26
4 -29z m-8 -34 c-3 -8 -6 -5 -6 6 -1 11 2 17 5 13 3 -3 4 -12 1 -19z m26 -73
c4 -27 3 -35 -3 -25 -5 8 -10 28 -10 44 0 39 6 30 13 -19z m14 -107 c-3 -7 -5
-2 -5 12 0 14 2 19 5 13 2 -7 2 -19 0 -25z m40 -240 c-3 -8 -6 -5 -6 6 -1 11
2 17 5 13 3 -3 4 -12 1 -19z m20 -240 c-3 -8 -6 -5 -6 6 -1 11 2 17 5 13 3 -3
4 -12 1 -19z m860 -1360 c-3 -7 -5 -2 -5 12 0 14 2 19 5 13 2 -7 2 -19 0 -25z
m20 -185 c-2 -21 -4 -6 -4 32 0 39 2 55 4 38 2 -18 2 -50 0 -70z m-13 -53 c5
-33 4 -74 -2 -105 -5 -27 -11 -68 -11 -90 -1 -22 -6 -44 -11 -49 -11 -11 -6
55 11 140 9 44 9 71 1 100 -10 38 -10 38 -6 -16 3 -33 -1 -75 -11 -105 l-15
-50 6 55 c3 30 4 84 4 119 -2 80 21 81 34 1z m-49 -270 c3 -5 1 -10 -4 -10 -6
0 -11 5 -11 10 0 6 2 10 4 10 3 0 8 -4 11 -10z m15 -40 c0 -5 -2 -10 -4 -10
-3 0 -8 5 -11 10 -3 6 -1 10 4 10 6 0 11 -4 11 -10z m-3 -42 c-3 -8 -6 -5 -6
6 -1 11 2 17 5 13 3 -3 4 -12 1 -19z m830 -10 c-3 -7 -5 -2 -5 12 0 14 2 19 5
13 2 -7 2 -19 0 -25z m-860 -30 c-28 -22 -33 -16 -17 22 12 28 14 29 26 13 11
-16 10 -20 -9 -35z m10 -70 c-3 -8 -6 -5 -6 6 -1 11 2 17 5 13 3 -3 4 -12 1
-19z m-14 -29 c6 -4 6 -17 -1 -35 l-10 -29 -2 35 -1 35 -14 -30 c-17 -38 -19
-23 -3 22 7 19 14 28 17 21 2 -7 8 -16 14 -19z m-66 -173 c-4 -22 -1 -36 6
-39 7 -2 10 -7 7 -10 -3 -3 -11 -2 -19 2 -8 6 -10 19 -6 45 9 46 20 48 12 2z
m-30 -152 c-3 -3 -12 -4 -19 -1 -8 3 -5 6 6 6 11 1 17 -2 13 -5z m13 -44 c-6
-12 -14 -20 -17 -17 -2 3 1 14 8 26 17 26 24 19 9 -9z m-23 -72 c-3 -8 -6 -5
-6 6 -1 11 2 17 5 13 3 -3 4 -12 1 -19z m-7 -38 c0 -5 -5 -10 -11 -10 -5 0 -7
5 -4 10 3 6 8 10 11 10 2 0 4 -4 4 -10z m-63 -152 c-3 -8 -6 -5 -6 6 -1 11 2
17 5 13 3 -3 4 -12 1 -19z m-37 -78 c0 -5 -5 -10 -11 -10 -5 0 -7 5 -4 10 3 6
8 10 11 10 2 0 4 -4 4 -10z m-115 -189 c3 -5 1 -12 -5 -16 -5 -3 -10 1 -10 9
0 18 6 21 15 7z m16 -42 c-25 -41 -27 -30 -4 19 9 19 18 31 20 25 2 -6 -5 -26
-16 -44z m-37 16 c3 -8 1 -15 -4 -15 -6 0 -10 7 -10 15 0 8 2 15 4 15 2 0 6
-7 10 -15z m-14 -29 c0 -3 -4 -8 -10 -11 -5 -3 -10 -1 -10 4 0 6 5 11 10 11 6
0 10 -2 10 -4z m-15 -117 c-9 -17 -19 -29 -21 -26 -7 7 18 57 28 57 5 0 1 -14
-7 -31z m-42 -43 c11 -28 5 -28 -16 0 -12 17 -14 24 -5 22 7 -2 16 -12 21 -22z
m-26 -31 c-13 -9 -17 -21 -13 -37 l6 -23 -11 22 c-13 24 1 53 25 53 6 0 3 -7
-7 -15z m-53 -30 c-9 -14 -18 -25 -20 -25 -2 0 2 11 8 25 6 14 15 25 20 25 5
0 1 -11 -8 -25z m30 -31 c9 -24 7 -27 -9 -10 -17 17 -19 26 -6 26 5 0 12 -7
15 -16z m-23 -57 c-10 -9 -11 -8 -5 6 3 10 9 15 12 12 3 -3 0 -11 -7 -18z
m-74 -22 c0 -8 -4 -15 -9 -15 -10 0 -11 14 -1 23 9 10 10 9 10 -8z m-17 -39
c0 -3 -4 -8 -10 -11 -5 -3 -10 -1 -10 4 0 6 5 11 10 11 6 0 10 -2 10 -4z m10
-61 c0 -8 -3 -16 -7 -18 -5 -3 -8 5 -8 18 0 13 3 21 8 18 4 -2 7 -10 7 -18z
m-47 -70 c-3 -9 -8 -14 -10 -11 -3 3 -2 9 2 15 9 16 15 13 8 -4z m-30 -16 c4
-16 3 -18 -9 -8 -7 6 -11 15 -8 20 8 13 11 11 17 -12z m-63 -20 c-7 -11 -14
-18 -17 -15 -3 3 0 12 7 21 18 21 23 19 10 -6z m-27 -44 c-3 -9 -8 -14 -10
-11 -3 3 -2 9 2 15 9 16 15 13 8 -4z m37 8 c-1 -5 -11 -21 -24 -37 l-24 -29
-11 24 c-11 21 -10 22 2 7 12 -15 15 -14 31 13 17 28 26 36 26 22z m-69 -79
c14 1 31 6 39 11 13 7 13 6 2 -7 -8 -9 -19 -15 -27 -12 -7 3 -16 0 -20 -6 -8
-13 -35 5 -35 24 0 7 3 7 8 -1 4 -7 19 -11 33 -9z m-58 -36 c-3 -17 -2 -19 5
-10 6 10 9 5 8 -17 -1 -17 -2 -31 -4 -31 -7 0 -22 55 -18 67 9 21 15 15 9 -9z
m47 -23 c-7 -9 -15 -13 -18 -10 -3 2 1 11 8 20 7 9 15 13 18 10 3 -2 -1 -11
-8 -20z m-64 -23 c1 -7 0 -8 -3 -2 -10 21 -23 9 -24 -22 l-1 -33 -9 30 c-6 20
-5 32 4 37 15 10 30 5 33 -10z m-61 -41 c-3 -6 -11 -11 -17 -11 -6 0 -6 6 2
15 14 17 26 13 15 -4z m65 -1 c0 -5 -5 -10 -11 -10 -5 0 -7 5 -4 10 3 6 8 10
11 10 2 0 4 -4 4 -10z m-90 -30 c0 -5 -4 -10 -10 -10 -5 0 -10 5 -10 10 0 6 5
10 10 10 6 0 10 -4 10 -10z m50 -1 c12 -8 10 -9 -7 -4 -18 5 -23 2 -23 -11 0
-10 -3 -15 -6 -11 -8 8 3 37 13 37 4 0 15 -5 23 -11z m-80 -19 c0 -5 -5 -10
-11 -10 -5 0 -7 5 -4 10 3 6 8 10 11 10 2 0 4 -4 4 -10z m14 -32 c-10 -13 -23
-26 -29 -30 -5 -4 -6 -11 -1 -15 4 -4 18 4 31 20 13 15 27 27 32 27 4 0 -13
-20 -37 -45 -24 -25 -47 -45 -51 -45 -4 0 -15 7 -24 16 -21 21 -30 12 -15 -15
6 -12 16 -19 23 -15 7 4 0 -6 -15 -21 -15 -16 -39 -30 -55 -31 -15 -2 -29 -7
-31 -12 -1 -5 -8 -17 -15 -26 -11 -15 -14 -15 -32 -1 -19 14 -19 16 25 54 36
32 51 39 75 35 17 -2 24 -2 18 2 -7 3 -13 13 -13 22 1 20 30 62 30 43 0 -18
28 -43 40 -36 6 4 1 14 -12 25 -13 10 -19 22 -15 26 4 5 12 3 16 -5 6 -9 14
-5 32 18 13 16 28 30 33 30 5 1 1 -9 -10 -21z m-34 2 c0 -5 -5 -10 -11 -10 -5
0 -7 5 -4 10 3 6 8 10 11 10 2 0 4 -4 4 -10z m-91 -167 c-1 -18 -121 -108
-140 -106 -11 2 -22 -4 -25 -12 -4 -8 -11 -15 -16 -15 -12 0 -68 -46 -63 -52
2 -2 -8 -4 -22 -3 -28 0 -46 25 -18 25 10 0 13 -5 9 -12 -4 -7 -3 -8 4 -4 6 4
9 13 6 20 -7 17 22 40 41 32 10 -3 15 -1 13 7 -3 16 60 78 65 63 3 -8 8 -7 18
2 16 15 49 16 49 1 0 -8 5 -8 15 1 8 7 15 17 15 23 0 10 30 36 43 37 4 0 7 -3
6 -7z m-1982 -39 c-3 -3 -12 -4 -19 -1 -8 3 -5 6 6 6 11 1 17 -2 13 -5z m-282
-34 c-3 -5 -14 -10 -23 -9 -14 0 -13 2 3 9 27 11 27 11 20 0z m-138 -46 c-3
-3 -12 -4 -19 -1 -8 3 -5 6 6 6 11 1 17 -2 13 -5z m-97 -29 c-22 -8 -28 -14
-16 -14 11 -1 17 -3 14 -6 -3 -3 -20 -2 -39 2 l-33 6 39 13 c54 16 79 16 35
-1z m57 -11 c-3 -3 -12 -4 -19 -1 -8 3 -5 6 6 6 11 1 17 -2 13 -5z m-147 -14
c-8 -5 -22 -10 -30 -10 -13 0 -13 1 0 10 8 5 22 10 30 10 13 0 13 -1 0 -10z
m65 -10 c15 -6 11 -8 -18 -8 -24 1 -33 4 -25 9 15 10 17 10 43 -1z m-138 -6
c-3 -3 -12 -4 -19 -1 -8 3 -5 6 6 6 11 1 17 -2 13 -5z m-92 -24 c-3 -5 -12
-10 -18 -10 -7 0 -6 4 3 10 19 12 23 12 15 0z m192 4 c-3 -3 -12 -4 -19 -1 -8
3 -5 6 6 6 11 1 17 -2 13 -5z m82 2 c-2 -2 -17 -6 -34 -10 -22 -5 -26 -4 -15
4 14 9 59 15 49 6z m-150 -10 c-2 -2 -17 -6 -34 -10 -22 -5 -26 -4 -15 4 14 9
59 15 49 6z m-192 -12 c-3 -3 -12 -4 -19 -1 -8 3 -5 6 6 6 11 1 17 -2 13 -5z
m61 -16 c-7 -20 -56 -34 -70 -20 -9 9 -6 14 13 21 34 14 61 13 57 -1z m-155
-5 c-7 -2 -19 -2 -25 0 -7 3 -2 5 12 5 14 0 19 -2 13 -5z m197 -3 c0 -5 -7 -7
-15 -4 -8 4 -15 8 -15 10 0 2 7 4 15 4 8 0 15 -4 15 -10z m-357 -97 c-7 -2
-19 -2 -25 0 -7 3 -2 5 12 5 14 0 19 -2 13 -5z"/>
<path d="M7316 6455 c-17 -13 -17 -15 -4 -15 9 0 20 5 23 10 4 6 15 8 26 5 11
-4 19 -2 19 4 0 16 -42 13 -64 -4z"/>
<path d="M7276 6423 c-6 -14 -5 -15 5 -6 7 7 10 15 7 18 -3 3 -9 -2 -12 -12z"/>
<path d="M7240 6345 c-19 -22 -8 -25 13 -3 9 10 13 18 8 18 -5 0 -14 -7 -21
-15z"/>
<path d="M7105 6270 c-3 -5 1 -10 9 -10 9 0 16 5 16 10 0 6 -4 10 -9 10 -6 0
-13 -4 -16 -10z"/>
<path d="M11806 11988 c3 -5 13 -7 21 -4 8 3 12 2 8 -3 -6 -10 65 -58 78 -53
5 1 6 -2 2 -7 -8 -13 32 -34 48 -25 6 4 9 4 5 -1 -9 -9 9 -35 23 -35 12 0 11
47 -1 55 -6 4 -8 10 -5 14 6 11 -50 22 -72 14 -16 -6 -16 -5 -4 10 12 15 11
17 -5 17 -16 0 -17 2 -4 10 13 8 12 10 -5 11 -71 7 -94 6 -89 -3z"/>
<path d="M8785 11431 c10 -34 45 -90 45 -71 -1 8 -12 33 -26 55 -17 26 -23 32
-19 16z"/>
<path d="M8833 11333 c-4 -9 -1 -19 5 -21 7 -2 12 -10 12 -17 0 -7 16 -48 35
-89 19 -42 35 -80 35 -86 0 -5 10 -31 21 -57 31 -67 37 -83 53 -128 8 -22 24
-65 36 -95 159 -419 302 -982 354 -1395 45 -359 54 -782 23 -1090 -63 -615
-247 -1185 -552 -1705 -101 -172 -295 -452 -372 -535 -10 -11 -34 -40 -53 -65
-85 -111 -453 -482 -595 -600 -49 -41 -92 -77 -95 -80 -10 -10 -145 -117 -205
-162 -385 -290 -991 -637 -1480 -848 -66 -28 -151 -65 -188 -81 -265 -114
-968 -358 -1222 -423 -33 -9 -84 -25 -113 -36 -29 -11 -61 -20 -73 -20 -11 0
-17 -4 -14 -10 4 -7 -3 -8 -21 -4 -18 5 -25 3 -20 -4 3 -6 -1 -8 -12 -5 -10 2
-38 -3 -62 -12 -25 -9 -55 -19 -67 -22 -13 -3 -23 -10 -23 -15 0 -5 -4 -7 -9
-3 -5 3 -12 1 -16 -5 -3 -5 -12 -10 -18 -10 -7 0 -6 4 3 10 13 8 12 10 -3 10
-11 0 -32 -9 -48 -21 -16 -11 -37 -19 -46 -18 -24 4 -63 -10 -63 -22 0 -6 -15
-9 -32 -7 -21 2 -32 -1 -31 -9 1 -6 -17 -19 -40 -28 -57 -22 -80 -24 -89 -11
-5 7 -8 4 -8 -6 0 -14 -9 -18 -39 -18 -29 0 -40 -4 -44 -19 -3 -12 -17 -21
-41 -25 -20 -4 -36 -11 -36 -16 0 -6 -21 -10 -47 -10 -29 0 -53 -6 -65 -17
-10 -9 -34 -17 -53 -18 -20 -1 -46 -11 -58 -22 -13 -13 -43 -23 -76 -26 -29
-4 -76 -18 -104 -32 -28 -14 -59 -25 -69 -25 -11 0 -32 -7 -48 -15 -17 -9 -32
-15 -35 -14 -9 1 -68 -13 -85 -21 -40 -19 -121 -43 -175 -51 -33 -5 -62 -14
-63 -19 -2 -6 -21 -10 -43 -10 -21 0 -39 -4 -39 -8 0 -4 -12 -9 -28 -10 -15
-1 -29 -7 -30 -12 -2 -6 -8 -7 -13 -4 -6 3 -17 0 -26 -8 -14 -11 -16 -11 -8 2
6 11 4 11 -11 -2 -10 -9 -21 -16 -24 -16 -15 3 -80 -14 -80 -20 0 -5 -16 -9
-36 -10 -20 -2 -54 -12 -76 -23 -22 -11 -49 -18 -59 -16 -11 3 -19 1 -19 -5 0
-6 -7 -8 -15 -5 -8 4 -17 2 -20 -3 -4 -6 -19 -10 -34 -10 -15 0 -31 -3 -35 -7
-3 -4 -14 -7 -24 -8 -45 -4 -109 -18 -127 -28 -11 -6 -22 -12 -25 -12 -33 -4
-137 -30 -145 -35 -13 -10 -178 -50 -204 -50 -12 0 -21 -4 -21 -9 0 -7 -156
-35 -200 -36 -8 0 -21 -5 -27 -12 -7 -6 -45 -16 -85 -23 -114 -18 -128 -21
-128 -31 0 -5 -18 -9 -39 -9 -22 0 -43 -4 -46 -10 -3 -5 -26 -10 -50 -10 -24
0 -45 -5 -47 -10 -2 -6 -26 -11 -53 -11 -28 -1 -56 -6 -64 -13 -12 -9 -13 -8
-6 4 6 12 5 13 -6 3 -7 -7 -23 -13 -35 -13 -13 0 -25 -4 -28 -9 -3 -5 -23 -9
-43 -9 -21 0 -49 -5 -63 -10 -31 -12 -32 -12 -76 -12 -21 0 -33 -4 -29 -10 4
-6 -23 -10 -74 -10 -47 0 -81 -4 -81 -10 0 -5 -9 -10 -20 -10 -11 0 -20 -4
-20 -10 0 -5 -25 -10 -55 -10 -33 0 -55 -4 -55 -11 0 -6 -6 -9 -12 -6 -7 2
-30 -2 -51 -9 -32 -12 -39 -11 -43 1 -5 13 -9 13 -27 0 -12 -8 -43 -15 -69
-15 -27 0 -48 -4 -48 -9 0 -5 -18 -11 -40 -15 l-40 -6 0 -405 c0 -379 1 -405
18 -405 9 0 55 4 102 10 47 5 175 19 285 30 1947 202 3829 649 5290 1255 588
243 1159 529 1605 803 355 218 754 500 1000 708 263 222 600 550 766 744 101
119 201 242 226 280 9 14 42 61 73 105 30 44 55 86 55 93 0 7 4 10 10 7 6 -3
7 1 4 9 -3 9 -1 16 5 16 6 0 8 7 4 17 -4 10 -2 14 4 10 7 -5 9 0 6 13 -3 11
-1 20 5 20 8 0 36 53 37 70 0 6 22 64 36 95 40 94 150 450 150 490 0 10 4 24
9 30 5 6 12 37 15 69 3 32 7 62 10 66 9 15 47 249 51 315 2 39 8 102 14 142 6
39 11 95 11 125 -1 29 1 96 4 148 8 189 5 567 -5 665 -7 55 -13 132 -15 170
-2 39 -9 106 -15 150 -6 44 -13 100 -16 125 -4 25 -11 51 -16 58 -7 8 -7 12 1
12 7 0 9 5 4 13 -4 6 -9 26 -10 42 -1 17 -6 48 -12 71 -6 23 -11 56 -12 75 -1
19 -8 59 -15 89 -10 44 -19 103 -27 180 0 3 -6 10 -12 15 -7 6 -15 29 -19 53
-16 108 -19 127 -26 132 -5 3 -15 39 -24 80 -22 108 -60 245 -95 345 -17 48
-29 91 -26 95 3 5 1 11 -4 15 -6 3 -8 12 -4 20 3 8 0 15 -6 15 -6 0 -14 18
-17 40 -4 22 -11 43 -15 46 -5 3 -7 10 -4 15 4 5 0 21 -8 36 -16 31 -25 56
-72 198 -19 55 -39 114 -46 130 -14 35 -13 32 -23 68 -5 15 -12 27 -17 27 -4
0 -11 17 -15 38 -9 47 -32 110 -54 142 -10 14 -23 42 -29 63 -7 20 -16 37 -20
37 -4 0 -13 21 -20 47 -18 68 -73 183 -84 176 -5 -3 -6 4 -2 16 7 23 -11 55
-26 46 -4 -3 -8 3 -7 12 0 20 -23 85 -34 93 -3 3 -16 30 -28 60 -11 30 -27 60
-34 65 -13 10 -42 84 -38 98 4 15 -9 7 -15 -10z"/>
<path d="M9930 10445 c0 -5 5 -17 10 -25 5 -8 10 -10 10 -5 0 6 -5 17 -10 25
-5 8 -10 11 -10 5z"/>
<path d="M9965 10356 c4 -17 26 -81 51 -143 24 -63 44 -118 44 -122 0 -5 11
-42 25 -83 14 -40 28 -82 30 -93 3 -11 16 -56 30 -100 69 -221 145 -603 182
-920 25 -215 25 -780 0 -985 -41 -331 -105 -622 -196 -900 -73 -220 -133 -364
-246 -595 -298 -606 -674 -1102 -1240 -1636 -208 -196 -622 -528 -852 -683
-40 -27 -70 -54 -66 -59 3 -6 1 -7 -5 -3 -13 8 -104 -53 -97 -64 3 -4 -4 -15
-15 -25 -12 -10 -20 -13 -20 -7 0 7 5 12 10 12 6 0 10 5 10 10 0 6 -11 3 -25
-6 -14 -9 -22 -20 -19 -25 3 -5 -2 -9 -12 -9 -19 0 -94 -40 -94 -51 0 -4 -12
-10 -27 -14 -20 -5 -23 -9 -13 -15 11 -7 11 -11 1 -24 -8 -9 -20 -16 -27 -16
-8 0 -14 -6 -14 -14 0 -8 -13 -17 -30 -21 -17 -4 -32 -15 -36 -27 -4 -14 -12
-18 -25 -15 -13 3 -24 -2 -32 -14 -6 -10 -17 -19 -24 -19 -7 0 -12 -3 -12 -7
3 -21 -2 -33 -16 -33 -8 0 -15 -4 -15 -10 0 -5 -7 -10 -15 -10 -23 0 -77 -29
-71 -39 3 -4 -14 -19 -37 -34 -22 -15 -37 -27 -32 -27 6 0 -6 -8 -25 -18 -19
-9 -43 -25 -53 -35 -10 -10 -22 -15 -27 -12 -6 4 -10 -1 -10 -9 0 -9 -9 -16
-20 -16 -11 0 -20 -6 -20 -14 0 -8 -10 -18 -22 -22 -13 -4 -26 -12 -30 -18 -4
-6 -13 -11 -20 -11 -7 0 -12 -8 -10 -17 2 -14 -13 -22 -58 -33 -20 -4 -49 -28
-45 -36 4 -5 0 -9 -8 -9 -8 0 -22 -9 -32 -20 -10 -11 -26 -20 -36 -20 -11 0
-24 -9 -31 -20 -7 -11 -24 -20 -37 -20 -24 0 -24 0 -5 -15 18 -14 18 -14 -4
-15 -12 0 -25 -7 -28 -15 -3 -8 -21 -17 -40 -21 -19 -3 -31 -10 -28 -15 3 -5
-1 -9 -8 -9 -8 0 -32 -13 -54 -29 -21 -16 -49 -32 -61 -35 -13 -4 -23 -14 -23
-21 0 -8 -12 -18 -27 -21 -16 -4 -34 -16 -41 -26 -7 -10 -20 -18 -28 -18 -8 0
-14 -4 -14 -8 0 -5 -18 -16 -41 -26 -22 -10 -43 -24 -46 -32 -3 -9 -13 -12
-31 -7 -16 4 -23 2 -18 -5 7 -12 -30 -44 -73 -61 -16 -7 -32 -22 -34 -33 -4
-14 -11 -19 -22 -14 -11 4 -31 -5 -53 -22 -21 -16 -44 -32 -52 -35 -8 -4 -28
-16 -45 -27 -16 -11 -38 -23 -47 -26 -10 -4 -18 -10 -18 -14 0 -5 -14 -11 -31
-15 -17 -4 -33 -13 -36 -20 -2 -8 -20 -19 -39 -25 -19 -7 -32 -16 -29 -21 4
-5 -3 -9 -14 -9 -11 0 -22 -4 -25 -8 -3 -5 -34 -23 -69 -40 -35 -17 -76 -43
-91 -57 -15 -14 -30 -25 -33 -25 -4 0 -15 -7 -25 -17 -14 -12 -18 -13 -18 -3
0 10 -3 10 -12 -2 -7 -9 -31 -19 -52 -23 -23 -4 -35 -10 -28 -14 7 -4 -2 -12
-23 -20 -21 -7 -33 -17 -29 -23 4 -6 3 -9 -2 -6 -5 3 -20 1 -34 -4 -20 -7 -22
-11 -10 -18 9 -6 10 -10 3 -10 -6 0 -25 -12 -42 -26 -25 -21 -31 -23 -31 -9 0
9 -6 15 -12 12 -7 -2 -12 -10 -10 -16 1 -6 -7 -11 -17 -11 -11 0 -23 -4 -26
-10 -3 -5 -15 -10 -26 -10 -11 0 -18 -4 -15 -9 7 -11 -18 -21 -55 -21 -16 0
-29 -5 -29 -11 0 -5 -4 -8 -9 -4 -5 3 -12 1 -16 -5 -3 -6 4 -10 17 -11 22 0
22 -1 3 -9 -11 -5 -37 -9 -58 -9 -33 -1 -37 -4 -32 -20 7 -22 -24 -39 -36 -19
-6 9 -13 9 -31 1 -20 -10 -20 -12 -4 -12 16 -1 15 -4 -7 -21 -14 -11 -30 -20
-37 -20 -6 0 -52 -20 -102 -45 -50 -25 -99 -45 -109 -45 -11 0 -36 -16 -56
-35 -20 -19 -43 -35 -50 -35 -16 0 -80 -29 -113 -51 -14 -9 -45 -22 -69 -29
-27 -7 -40 -15 -32 -19 12 -8 -27 -31 -53 -31 -8 0 -19 -7 -26 -15 -7 -8 -19
-15 -27 -15 -8 0 -22 -7 -30 -16 -10 -9 -26 -14 -41 -11 -17 3 -34 -4 -57 -24
-18 -16 -40 -29 -49 -29 -30 0 -96 -32 -89 -44 3 -6 3 -8 -1 -4 -5 4 -37 -9
-73 -28 -36 -19 -69 -32 -74 -28 -11 6 -39 -19 -39 -35 0 -6 -6 -11 -14 -11
-8 0 -16 -5 -18 -11 -2 -7 -12 -7 -31 2 -23 10 -30 10 -45 -4 -10 -10 -26 -17
-35 -17 -9 0 -19 -5 -22 -10 -4 -6 -11 -8 -16 -5 -5 4 -14 3 -20 -1 -8 -4 -7
-9 2 -15 11 -7 11 -9 2 -10 -21 -2 -28 -4 -38 -10 -5 -3 -30 -11 -55 -18 -25
-8 -52 -16 -60 -18 -8 -3 -28 -7 -45 -9 -28 -4 -49 -17 -51 -32 0 -4 -6 -19
-14 -34 -10 -22 -18 -26 -36 -22 -16 4 -28 -1 -41 -15 -9 -12 -27 -21 -38 -20
-11 0 -14 3 -7 6 6 2 10 9 7 13 -3 5 -17 4 -30 -2 -13 -6 -22 -15 -18 -21 3
-6 1 -7 -6 -3 -13 8 -91 -23 -91 -37 0 -4 -4 -5 -10 -2 -5 3 -10 2 -10 -4 0
-6 -7 -8 -15 -5 -15 6 -75 -16 -75 -27 0 -3 -18 -11 -40 -18 -22 -6 -40 -16
-40 -21 0 -6 -18 -10 -40 -10 -22 0 -40 -4 -40 -10 0 -5 -9 -10 -20 -10 -11 0
-20 -4 -20 -9 0 -11 -93 -51 -119 -51 -12 0 -21 -4 -21 -10 0 -5 -11 -10 -25
-10 -14 0 -37 -11 -51 -25 -23 -23 -37 -29 -57 -26 -4 0 -7 -3 -7 -9 0 -5 -9
-10 -19 -10 -11 0 -28 -3 -38 -7 -15 -6 -13 -9 12 -15 19 -5 10 -5 -25 -2 -32
2 -50 1 -42 -4 9 -6 2 -12 -22 -19 -28 -9 -33 -8 -29 2 3 10 -2 12 -19 8 -13
-3 -28 -10 -34 -14 -6 -5 -14 -6 -17 -2 -4 3 -7 -3 -7 -14 0 -19 -24 -31 -80
-38 -9 -1 -26 -7 -38 -14 -13 -7 -22 -8 -22 -2 0 14 -47 -2 -111 -38 -31 -17
-63 -31 -72 -31 -9 0 -17 -4 -17 -8 0 -5 -12 -15 -27 -23 -16 -8 -31 -18 -35
-24 -5 -6 -11 -5 -17 4 -5 7 -14 10 -21 6 -9 -6 -9 -9 1 -16 9 -6 10 -9 2 -9
-6 0 -22 -4 -35 -9 -13 -5 -27 -9 -33 -11 -5 -1 -14 -8 -18 -16 -5 -9 -26 -14
-62 -14 -30 0 -55 -4 -55 -9 0 -5 10 -7 23 -4 17 4 19 3 7 -6 -8 -5 -25 -8
-37 -5 -15 4 -25 0 -33 -16 -8 -15 -18 -20 -32 -16 -29 7 -66 -13 -47 -25 10
-6 6 -9 -13 -9 -18 0 -28 5 -28 15 0 18 -9 19 -33 0 -11 -7 -26 -11 -35 -8
-11 5 -14 1 -10 -14 4 -17 -1 -22 -30 -31 -19 -6 -39 -9 -44 -6 -4 3 -8 -2 -8
-11 0 -9 -6 -15 -12 -12 -7 2 -12 10 -11 16 4 14 -24 15 -32 1 -3 -5 1 -10 9
-10 9 0 16 -5 16 -10 0 -11 -20 -21 -87 -40 -23 -7 -44 -19 -47 -26 -3 -8 -20
-14 -41 -14 -19 0 -35 -4 -35 -10 0 -5 -9 -10 -20 -10 -11 0 -20 -4 -20 -10 0
-5 -8 -10 -19 -10 -22 0 -33 -33 -17 -51 8 -10 7 -10 -6 0 -10 8 -28 11 -42 7
-14 -3 -27 -2 -30 3 -4 5 -18 7 -34 5 -15 -3 -34 -6 -43 -7 -9 -1 -15 -7 -12
-14 4 -9 -7 -13 -36 -13 -51 0 -55 -15 -4 -16 23 0 45 6 57 18 22 20 42 23 51
8 3 -5 13 -7 23 -4 16 5 16 5 0 -6 -10 -6 -24 -10 -30 -8 -18 3 -58 -12 -58
-21 0 -4 -22 -7 -49 -7 -34 1 -47 -2 -40 -10 6 -7 -5 -10 -36 -9 -28 1 -43 -2
-42 -9 1 -7 -16 -10 -48 -10 -35 1 -44 -1 -30 -6 18 -8 18 -9 -4 -9 -13 -1
-22 -4 -18 -7 8 -8 196 26 202 37 3 4 12 6 19 3 31 -12 828 149 1316 265 825
197 1380 354 2105 596 2095 699 3839 1647 5100 2770 550 489 1050 1073 1377
1605 35 58 71 119 80 135 8 17 32 60 52 97 20 37 35 71 34 75 -3 17 15 83 23
83 5 0 9 11 9 25 0 14 3 25 8 25 4 0 7 16 8 36 0 20 7 40 15 45 8 5 10 9 5 9
-5 0 -3 6 3 14 9 11 9 15 -1 19 -10 4 -10 8 2 16 8 5 12 13 8 16 -3 4 -1 23 4
43 6 20 12 46 13 57 3 17 16 86 30 160 14 73 34 222 40 290 3 44 8 94 12 110
12 65 15 721 3 850 -7 72 -14 155 -16 185 -2 48 -25 216 -55 405 -5 33 -14 99
-21 148 -6 48 -15 87 -20 87 -4 0 -8 20 -8 44 0 25 -4 47 -10 51 -5 3 -7 12
-3 20 3 8 1 15 -4 15 -6 0 -10 13 -11 29 0 16 -10 60 -20 98 -11 37 -23 83
-27 101 -4 18 -13 45 -21 60 -8 15 -14 41 -14 59 0 17 -5 35 -10 38 -6 4 -9
19 -8 35 1 16 -5 37 -14 47 -8 10 -16 33 -16 52 0 19 -5 37 -10 40 -6 3 -13
23 -17 44 -4 20 -12 40 -17 43 -6 4 -5 10 3 15 9 6 10 9 2 9 -6 0 -17 17 -24
38 -6 20 -16 43 -22 50 -6 8 -12 21 -12 30 -6 62 -18 122 -25 122 -5 0 -14 17
-20 38 -7 20 -19 47 -27 60 -7 12 -11 27 -8 32 4 6 0 13 -9 16 -8 3 -12 12 -9
20 3 8 -3 31 -13 52 -9 20 -16 38 -15 40 1 1 -6 16 -14 32 -8 16 -15 33 -15
37 -1 16 -24 73 -31 73 -9 0 -31 58 -34 90 -1 14 -12 41 -24 60 -11 19 -26 46
-32 60 -6 14 -17 38 -25 53 -8 16 -14 35 -14 43 0 8 -4 14 -10 14 -5 0 -13 18
-16 41 -4 23 -10 36 -14 29 -4 -7 -10 4 -15 26 -4 22 -10 41 -14 44 -4 3 -15
23 -25 45 -13 31 -15 34 -11 11z m162 -388 c-3 -7 -5 -2 -5 12 0 14 2 19 5 13
2 -7 2 -19 0 -25z m-2631 -6093 c-10 -7 -15 -18 -11 -24 4 -7 0 -8 -11 -4 -15
6 -15 8 6 25 12 10 25 18 29 18 3 0 -2 -7 -13 -15z m-2583 -1712 c-7 -2 -19
-2 -25 0 -7 3 -2 5 12 5 14 0 19 -2 13 -5z m-1453 -687 c0 -3 -4 -8 -10 -11
-5 -3 -10 -1 -10 4 0 6 5 11 10 11 6 0 10 -2 10 -4z m-304 -131 c-25 -19 -36
-19 -36 0 0 10 10 15 28 15 26 -1 26 -1 8 -15z m-2389 -1031 c-3 -3 -12 -4
-19 -1 -8 3 -5 6 6 6 11 1 17 -2 13 -5z m40 -10 c-3 -3 -12 -4 -19 -1 -8 3 -5
6 6 6 11 1 17 -2 13 -5z m-120 -30 c-3 -3 -12 -4 -19 -1 -8 3 -5 6 6 6 11 1
17 -2 13 -5z m-240 -50 c-3 -3 -12 -4 -19 -1 -8 3 -5 6 6 6 11 1 17 -2 13 -5z"/>
<path d="M10940 9922 c0 -5 7 -15 15 -22 8 -7 15 -8 15 -2 0 5 -7 15 -15 22
-8 7 -15 8 -15 2z"/>
<path d="M10970 9860 c0 -5 5 -10 11 -10 5 0 7 5 4 10 -3 6 -8 10 -11 10 -2 0
-4 -4 -4 -10z"/>
<path d="M10981 9824 c0 -11 3 -14 6 -6 3 7 2 16 -1 19 -3 4 -6 -2 -5 -13z"/>
<path d="M11000 9800 c0 -8 5 -22 10 -30 9 -13 10 -13 10 0 0 8 -5 22 -10 30
-9 13 -10 13 -10 0z"/>
<path d="M11021 9740 c0 -8 4 -24 9 -35 5 -13 9 -14 9 -5 0 8 -4 24 -9 35 -5
13 -9 14 -9 5z"/>
<path d="M9040 9690 c0 -5 7 -10 16 -10 8 0 12 5 9 10 -3 6 -10 10 -16 10 -5
0 -9 -4 -9 -10z"/>
<path d="M11048 9668 c-4 -10 0 -37 8 -60 8 -24 24 -77 35 -118 12 -41 25 -91
31 -110 5 -19 25 -100 44 -180 230 -965 152 -1965 -227 -2902 -183 -451 -410
-863 -690 -1248 -22 -30 -47 -66 -57 -80 -22 -33 -60 -83 -162 -211 -97 -121
-113 -144 -112 -155 0 -16 -18 -44 -29 -44 -6 0 -3 7 5 16 9 8 16 18 16 20 0
11 -20 -8 -42 -38 -19 -28 -20 -31 -4 -25 16 6 17 5 6 -8 -7 -8 -17 -12 -22
-9 -17 11 -69 -48 -62 -69 5 -15 3 -19 -9 -14 -9 3 -23 -3 -34 -15 -10 -12
-13 -18 -6 -15 6 4 14 3 18 -3 3 -5 1 -10 -6 -10 -8 0 -7 -5 2 -17 12 -15 12
-16 -4 -10 -10 4 -21 7 -23 7 -3 0 -2 5 2 11 4 8 0 8 -15 0 -11 -7 -21 -17
-21 -23 0 -7 5 -6 15 2 19 16 19 1 0 -24 -13 -17 -15 -18 -21 -2 -6 15 -7 15
-19 -1 -7 -10 -11 -21 -9 -25 10 -15 -8 -31 -17 -17 -6 9 -7 2 -4 -19 4 -23 2
-31 -5 -27 -6 4 -18 1 -27 -7 -15 -11 -16 -11 -9 7 5 15 -2 11 -25 -12 l-33
-32 25 -21 c24 -21 24 -21 2 -15 -19 5 -23 2 -23 -14 0 -23 -15 -28 -24 -8 -3
6 -3 2 0 -10 4 -19 2 -22 -13 -16 -16 6 -16 5 -4 -10 9 -12 10 -17 2 -17 -7 0
-9 -5 -6 -10 3 -6 0 -13 -9 -16 -8 -3 -12 -12 -9 -20 3 -9 -2 -14 -15 -14 -24
0 -48 -25 -32 -35 15 -9 12 -25 -4 -25 -7 0 -19 -7 -26 -15 -7 -8 -17 -12 -23
-8 -5 3 -7 1 -3 -5 3 -6 -1 -17 -9 -25 -20 -20 -19 -28 3 -20 9 3 14 3 11 -1
-4 -4 -19 -9 -35 -12 -33 -6 -55 -29 -47 -50 3 -8 0 -14 -6 -14 -6 0 -11 -9
-11 -20 0 -14 -11 -22 -39 -31 -36 -11 -38 -14 -28 -32 9 -15 9 -21 0 -24 -7
-3 -13 -11 -13 -19 0 -9 -4 -13 -8 -10 -10 6 -92 -70 -92 -85 0 -6 -19 -30
-43 -54 -24 -23 -49 -57 -56 -74 -8 -17 -20 -31 -27 -31 -8 0 -14 -5 -14 -11
0 -16 -54 -79 -67 -79 -7 0 -13 -7 -13 -15 0 -8 -6 -15 -14 -15 -8 0 -18 -9
-21 -20 -3 -11 -15 -20 -26 -20 -17 0 -25 -17 -20 -44 1 -5 -5 -6 -12 -3 -9 3
-19 -4 -25 -18 -6 -13 -23 -32 -37 -41 -20 -13 -23 -19 -13 -26 10 -6 7 -10
-9 -14 -13 -4 -23 -10 -23 -14 0 -15 -65 -82 -94 -97 -19 -10 -25 -17 -17 -22
8 -6 4 -13 -13 -24 -14 -10 -30 -17 -35 -17 -6 0 -8 -7 -5 -15 4 -10 0 -15
-15 -15 -12 0 -21 -6 -21 -14 0 -8 -13 -24 -30 -36 -16 -12 -29 -26 -27 -33 1
-7 -6 -11 -15 -11 -10 1 -18 -2 -18 -6 0 -5 -16 -25 -35 -44 -19 -20 -35 -43
-35 -51 0 -8 -9 -15 -20 -15 -25 0 -61 -35 -63 -60 -1 -10 -5 -16 -9 -14 -4 3
-15 -5 -25 -16 -10 -12 -31 -28 -46 -37 -16 -8 -27 -17 -24 -19 9 -9 -38 -53
-68 -64 -23 -9 -26 -13 -15 -20 10 -7 11 -10 3 -10 -7 0 -22 -9 -33 -20 -11
-11 -17 -20 -13 -20 3 0 -2 -9 -12 -20 -9 -10 -20 -18 -24 -17 -8 3 -51 -41
-51 -52 0 -5 -15 -13 -32 -17 -18 -4 -28 -9 -21 -11 15 -5 5 -33 -12 -33 -20
0 -66 -41 -59 -52 4 -6 3 -8 -3 -5 -5 3 -36 -18 -68 -48 -32 -30 -63 -55 -68
-55 -6 0 -7 -3 -4 -7 8 -8 -42 -55 -52 -49 -4 3 -27 -13 -50 -35 -24 -21 -49
-39 -56 -39 -7 0 -15 -7 -19 -15 -3 -8 -12 -15 -21 -15 -8 0 -15 -9 -15 -19 0
-10 -7 -21 -15 -24 -8 -4 -23 -24 -35 -47 -12 -23 -27 -40 -38 -40 -15 0 -15
2 -2 10 10 7 11 10 2 10 -7 0 -17 -11 -22 -25 -5 -14 -18 -29 -27 -32 -10 -4
-34 -22 -53 -40 -19 -18 -41 -33 -49 -33 -8 0 -12 -3 -8 -6 8 -8 -54 -64 -71
-64 -7 0 -10 -4 -7 -10 3 -5 -1 -10 -9 -10 -33 0 -66 -23 -66 -47 0 -16 -6
-23 -20 -23 -11 0 -25 -9 -32 -19 -6 -10 -18 -17 -25 -14 -7 3 -13 0 -13 -6 0
-6 -7 -11 -15 -11 -8 0 -15 -4 -15 -9 0 -5 -8 -12 -18 -15 -9 -3 -22 -16 -27
-28 -6 -13 -20 -24 -32 -26 -12 -2 -33 -17 -47 -33 -14 -16 -29 -29 -35 -29
-5 0 -11 -3 -13 -7 -1 -5 -27 -28 -55 -51 -29 -24 -53 -50 -53 -57 0 -7 -15
-16 -32 -19 -29 -6 -83 -46 -158 -119 -25 -24 -58 -42 -72 -39 -5 1 -8 -5 -8
-13 0 -9 -9 -15 -25 -15 -14 0 -25 -4 -25 -10 0 -5 7 -10 16 -10 29 0 3 -20
-42 -31 -31 -8 -54 -22 -72 -45 -15 -19 -34 -34 -42 -34 -8 0 -28 -16 -45 -36
-22 -27 -35 -34 -52 -29 -12 3 -24 1 -28 -4 -3 -5 3 -11 12 -14 13 -3 9 -6
-12 -11 -53 -13 -62 -19 -42 -23 37 -9 4 -35 -63 -49 -28 -5 -31 -8 -16 -14
14 -5 16 -9 7 -14 -7 -5 -15 -6 -18 -3 -5 6 -96 -51 -124 -78 -9 -8 -20 -15
-26 -15 -5 0 -21 -11 -35 -24 -14 -12 -33 -26 -42 -29 -9 -4 -16 -11 -16 -17
0 -5 -6 -10 -14 -10 -8 0 -16 -7 -20 -15 -3 -8 -15 -15 -26 -15 -11 0 -20 -4
-20 -10 0 -5 -13 -22 -28 -37 -16 -16 -31 -35 -34 -43 -4 -10 -18 -15 -47 -14
-22 1 -44 -2 -47 -7 -3 -5 3 -9 13 -9 10 -1 -4 -11 -32 -23 -56 -25 -95 -55
-95 -74 0 -15 -35 -35 -44 -26 -3 3 -6 1 -6 -6 0 -11 -47 -36 -63 -32 -5 1
-11 -7 -14 -18 -3 -12 -17 -21 -39 -25 -18 -4 -50 -22 -70 -41 -20 -19 -39
-34 -43 -33 -3 1 -16 -1 -28 -6 -21 -7 -28 -17 -24 -38 0 -5 -5 -8 -13 -8 -8
0 -17 -4 -21 -9 -7 -12 31 -34 48 -28 7 3 1 10 -13 16 l-25 12 24 -5 c14 -3
32 0 40 7 10 9 10 5 -3 -14 -18 -29 -79 -47 -68 -21 5 15 -1 14 -90 -5 -31 -7
-29 -7 22 -14 30 -4 64 -10 74 -15 14 -5 17 -4 11 6 -5 8 -3 11 6 8 7 -2 40 8
74 22 157 69 184 83 178 93 -3 6 -1 7 5 3 7 -4 45 8 85 27 39 19 122 58 182
87 61 29 129 61 152 72 24 11 40 25 36 31 -3 6 -1 7 6 3 15 -10 222 94 214
107 -3 6 -1 7 6 3 15 -9 122 45 576 292 462 252 907 521 1355 820 151 101 277
187 280 191 3 3 19 15 35 25 75 47 554 407 720 541 402 324 634 532 990 889
315 315 363 366 524 551 347 398 684 865 935 1295 167 286 406 791 406 858 0
11 5 22 10 24 7 2 7 15 0 38 -7 23 -7 36 0 38 5 2 10 8 10 13 0 6 -4 7 -10 4
-16 -10 -12 31 5 45 11 9 12 17 5 30 -6 10 -10 25 -9 32 0 7 4 4 8 -7 13 -33
22 484 12 685 -5 102 -10 235 -11 297 0 85 -4 114 -15 120 -10 6 -15 43 -20
138 -4 72 -11 133 -17 136 -5 3 -11 38 -13 77 -5 95 -15 161 -26 168 -5 3 -9
20 -9 39 0 19 -4 36 -8 39 -4 2 -9 30 -10 62 -1 32 -6 62 -11 68 -4 6 -9 18
-9 26 -1 34 -24 144 -32 161 -6 10 -10 26 -10 37 0 11 -7 33 -15 48 -8 16 -15
46 -15 67 0 20 -5 37 -11 37 -5 0 -8 4 -5 8 7 12 -13 82 -24 82 -4 0 -14 32
-21 70 -8 49 -17 70 -27 70 -10 0 -13 7 -9 21 3 13 0 22 -10 26 -12 5 -12 7
-1 14 10 6 10 11 0 21 -6 6 -12 21 -12 33 0 12 -7 30 -15 41 -8 10 -15 35 -15
55 0 20 -6 42 -14 49 -8 6 -12 18 -9 27 4 9 -1 19 -10 24 -8 5 -18 23 -22 39
-4 17 -10 30 -13 30 -8 0 -32 66 -34 90 -1 8 -8 20 -17 27 -13 10 -13 12 -1
13 11 0 11 3 2 12 -7 7 -12 20 -12 29 0 9 -7 22 -16 30 -8 7 -13 21 -11 31 3
11 0 18 -9 18 -8 0 -14 5 -14 10 0 6 5 10 12 10 6 0 4 6 -7 13 -10 8 -15 19
-11 25 4 7 3 12 -3 12 -12 0 -34 77 -27 96 3 8 0 11 -10 7 -9 -3 -14 1 -14 11
0 9 -9 26 -20 38 -11 12 -19 27 -18 32 1 6 -6 29 -15 50 -10 22 -16 50 -15 64
2 15 -3 27 -12 29 -13 4 -13 3 0 -6 11 -8 12 -13 3 -22 -11 -11 -23 18 -35 86
-3 18 -4 18 -10 3z m139 -360 c-3 -7 -5 -2 -5 12 0 14 2 19 5 13 2 -7 2 -19 0
-25z m-1203 -4642 c-3 -8 -13 -17 -22 -21 -13 -5 -13 -2 3 15 21 24 26 25 19
6z m-144 -169 c0 -2 -9 -14 -20 -27 -11 -13 -20 -19 -20 -15 0 5 7 17 17 27
15 17 23 22 23 15z m-160 -177 c0 -5 -5 -10 -11 -10 -5 0 -7 5 -4 10 3 6 8 10
11 10 2 0 4 -4 4 -10z m-73 -104 c-8 -8 -18 -12 -22 -8 -4 4 -2 -4 5 -17 10
-19 10 -22 -2 -16 -34 20 -38 27 -23 42 8 8 19 12 24 8 5 -3 13 0 16 6 4 5 9
8 12 5 3 -3 -1 -12 -10 -20z m-4437 -4080 c0 -3 -4 -8 -10 -11 -5 -3 -10 -1
-10 4 0 6 5 11 10 11 6 0 10 -2 10 -4z m-43 -22 c-3 -3 -12 -4 -19 -1 -8 3 -5
6 6 6 11 1 17 -2 13 -5z"/>
<path d="M11071 9670 c0 -8 4 -22 9 -30 12 -18 12 -2 0 25 -6 13 -9 15 -9 5z"/>
<path d="M9043 9480 c0 -25 2 -35 4 -22 2 12 2 32 0 45 -2 12 -4 2 -4 -23z"/>
<path d="M9113 9480 c0 -25 2 -35 4 -22 2 12 2 32 0 45 -2 12 -4 2 -4 -23z"/>
<path d="M9200 9339 c0 -11 5 -17 10 -14 6 3 10 13 10 21 0 8 -4 14 -10 14 -5
0 -10 -9 -10 -21z"/>
<path d="M9300 9312 c0 -17 4 -32 9 -34 6 -1 11 -22 12 -45 2 -24 6 -43 9 -43
12 0 -3 124 -16 138 -12 11 -14 9 -14 -16z"/>
<path d="M9291 9214 c0 -11 3 -14 6 -6 3 7 2 16 -1 19 -3 4 -6 -2 -5 -13z"/>
<path d="M9328 9155 c2 -14 6 -25 8 -25 2 0 4 11 4 25 0 14 -4 25 -9 25 -4 0
-6 -11 -3 -25z"/>
<path d="M11977 6222 c-41 -133 -150 -501 -163 -552 -8 -30 -23 -82 -34 -115
-11 -33 -36 -114 -56 -180 -51 -175 -124 -406 -135 -433 -5 -13 -9 -32 -9 -42
0 -11 -4 -20 -10 -20 -5 0 -10 -6 -10 -14 0 -7 -9 -35 -21 -61 -11 -26 -19
-58 -16 -71 2 -13 1 -21 -3 -19 -9 6 -27 -31 -35 -72 -4 -18 -11 -33 -16 -33
-5 0 -9 -9 -9 -20 0 -11 -9 -35 -20 -55 -11 -20 -20 -42 -20 -49 0 -7 -9 -23
-20 -36 -11 -13 -20 -36 -20 -52 0 -15 -4 -28 -10 -28 -5 0 -10 -6 -10 -14 0
-7 -7 -27 -15 -42 -8 -16 -15 -37 -15 -46 0 -9 -6 -21 -14 -25 -8 -5 -18 -23
-21 -42 -3 -18 -12 -40 -20 -48 -8 -8 -15 -19 -15 -25 0 -6 -9 -29 -19 -52
-11 -23 -25 -56 -33 -73 -7 -18 -16 -33 -20 -33 -4 0 -15 -24 -23 -52 -9 -29
-27 -73 -40 -98 -23 -43 -39 -75 -126 -257 -22 -45 -46 -87 -54 -93 -8 -7 -15
-21 -15 -32 0 -10 -7 -32 -15 -48 -11 -22 -12 -30 -2 -33 6 -3 2 -6 -10 -6
-22 -1 -34 -21 -13 -21 5 0 -3 -19 -19 -42 -66 -99 -104 -168 -94 -168 5 0 0
-5 -10 -11 -9 -6 -15 -15 -11 -20 3 -6 -3 -13 -15 -16 -22 -6 -28 -19 -10 -25
14 -5 -31 -88 -48 -88 -7 0 -10 -6 -7 -15 4 -10 0 -15 -15 -15 -23 0 -29 -15
-8 -23 9 -4 9 -8 1 -14 -7 -4 -14 -19 -16 -33 -2 -14 -9 -24 -16 -23 -6 2 -26
-27 -43 -65 -17 -37 -47 -91 -65 -120 -19 -29 -34 -61 -34 -72 0 -11 -4 -20
-8 -20 -5 0 -15 -18 -22 -40 -7 -22 -17 -40 -22 -40 -4 0 -8 -7 -8 -15 0 -8
-9 -19 -20 -25 -11 -6 -20 -15 -20 -21 0 -6 -7 -17 -15 -26 -9 -8 -19 -28 -22
-44 -3 -16 -10 -29 -15 -29 -6 0 -8 -11 -6 -25 3 -13 1 -22 -4 -19 -11 7 -37
-24 -38 -44 0 -7 -16 -26 -35 -43 -19 -17 -37 -40 -41 -52 -8 -26 -35 -62 -49
-66 -16 -4 -22 -13 -6 -9 15 3 23 -39 9 -48 -4 -3 -6 -10 -2 -15 3 -5 10 -6
16 -3 7 4 8 2 4 -5 -6 -9 -11 -9 -21 -1 -8 7 -24 9 -36 5 -14 -5 -25 -2 -30 6
-6 10 -9 10 -9 2 0 -7 8 -16 17 -21 15 -9 13 -14 -16 -51 -32 -40 -51 -52 -51
-31 0 6 -4 10 -10 10 -18 0 -10 -19 11 -25 19 -6 20 -8 3 -26 -9 -10 -21 -16
-25 -13 -8 5 -13 -9 -11 -27 1 -4 -8 -15 -18 -24 -21 -19 -28 -7 -8 13 7 7 8
12 2 12 -17 0 -33 -22 -27 -36 5 -14 -12 -20 -20 -6 -2 4 -2 1 0 -6 1 -8 -12
-28 -29 -46 -34 -33 -81 -88 -63 -73 6 5 59 55 119 110 59 56 114 106 122 110
8 4 14 13 14 18 0 6 -5 7 -12 3 -7 -4 -2 7 11 25 13 18 25 30 28 27 3 -3 -2
-13 -11 -22 -9 -9 -14 -19 -11 -23 10 -10 43 41 38 58 -4 14 -4 14 6 1 9 -13
16 -9 48 23 32 32 36 39 23 48 -12 8 -11 9 6 5 29 -8 96 60 74 75 -12 8 -11 9
6 5 17 -5 49 24 175 156 227 239 472 509 540 594 13 17 67 82 119 145 83 99
234 289 295 370 11 15 52 69 91 120 101 135 157 215 330 475 l154 231 -2 1036
c-3 1007 -4 1035 -21 979z m-1527 -3916 c0 -3 -4 -8 -10 -11 -5 -3 -10 -1 -10
4 0 6 5 11 10 11 6 0 10 -2 10 -4z m-170 -156 c0 -5 -2 -10 -4 -10 -3 0 -8 5
-11 10 -3 6 -1 10 4 10 6 0 11 -4 11 -10z m60 6 c0 -2 -8 -10 -17 -17 -16 -13
-17 -12 -4 4 13 16 21 21 21 13z m-124 -103 c-1 -1 -12 0 -25 4 -15 4 -19 8
-10 13 10 7 42 -10 35 -17z m28 18 c4 -5 -3 -7 -14 -4 -23 6 -26 13 -6 13 8 0
17 -4 20 -9z m-59 -31 c3 -5 1 -10 -4 -10 -6 0 -11 5 -11 10 0 6 2 10 4 10 3
0 8 -4 11 -10z"/>
<path d="M7041 6223 c-1 -7 8 -17 19 -23 14 -7 20 -7 20 0 0 5 -6 10 -14 10
-8 0 -17 6 -19 13 -4 9 -6 9 -6 0z"/>
<path d="M7010 6190 c0 -5 5 -10 10 -10 6 0 10 5 10 10 0 6 -4 10 -10 10 -5 0
-10 -4 -10 -10z"/>
<path d="M4303 6133 c9 -2 23 -2 30 0 6 3 -1 5 -18 5 -16 0 -22 -2 -12 -5z"/>
<path d="M4228 6123 c12 -2 30 -2 40 0 9 3 -1 5 -23 4 -22 0 -30 -2 -17 -4z"/>
<path d="M6955 6109 c-11 -16 -1 -19 13 -3 7 8 8 14 3 14 -5 0 -13 -5 -16 -11z"/>
<path d="M4208 6103 c7 -3 16 -2 19 1 4 3 -2 6 -13 5 -11 0 -14 -3 -6 -6z"/>
<path d="M4310 6100 c8 -5 22 -9 30 -9 10 0 8 3 -5 9 -27 12 -43 12 -25 0z"/>
<path d="M6896 6101 c-3 -5 1 -11 9 -14 9 -4 12 -1 8 9 -6 16 -10 17 -17 5z"/>
<path d="M4063 6070 c-1 -14 4 -20 20 -20 18 0 19 2 7 10 -13 9 -13 10 0 10
13 0 13 1 0 10 -22 14 -26 12 -27 -10z"/>
<path d="M3933 6063 c15 -2 37 -2 50 0 12 2 0 4 -28 4 -27 0 -38 -2 -22 -4z"/>
<path d="M4133 6063 c9 -2 25 -2 35 0 9 3 1 5 -18 5 -19 0 -27 -2 -17 -5z"/>
<path d="M3673 6043 c9 -2 23 -2 30 0 6 3 -1 5 -18 5 -16 0 -22 -2 -12 -5z"/>
<path d="M3910 6040 c-12 -8 -9 -10 13 -10 16 0 26 4 22 10 -8 12 -16 12 -35
0z"/>
<path d="M6785 6020 c-3 -5 -1 -10 4 -10 6 0 11 5 11 10 0 6 -2 10 -4 10 -3 0
-8 -4 -11 -10z"/>
<path d="M6738 6003 c-10 -2 -18 -8 -18 -13 0 -10 38 -1 46 11 5 9 1 10 -28 2z"/>
<path d="M6670 5940 c8 -5 20 -10 25 -10 6 0 3 5 -5 10 -8 5 -19 10 -25 10 -5
0 -3 -5 5 -10z"/>
<path d="M6675 5910 c-3 -6 1 -7 9 -4 18 7 21 14 7 14 -6 0 -13 -4 -16 -10z"/>
<path d="M6435 5800 c-3 -6 1 -7 9 -4 18 7 21 14 7 14 -6 0 -13 -4 -16 -10z"/>
<path d="M6360 5760 c0 -5 5 -10 11 -10 5 0 7 5 4 10 -3 6 -8 10 -11 10 -2 0
-4 -4 -4 -10z"/>
<path d="M6395 5740 c-3 -6 1 -7 9 -4 18 7 21 14 7 14 -6 0 -13 -4 -16 -10z"/>
<path d="M9425 4049 c-4 -6 -5 -12 -2 -15 2 -3 7 2 10 11 7 17 1 20 -8 4z"/>
<path d="M7340 3780 c-9 -6 -10 -10 -3 -10 6 0 15 5 18 10 8 12 4 12 -15 0z"/>
<path d="M5820 2740 c-13 -8 -12 -10 3 -10 9 0 17 5 17 10 0 12 -1 12 -20 0z"/>
<path d="M11979 2734 c-9 -11 -22 -35 -29 -54 -7 -19 -17 -40 -22 -46 -5 -7
-9 -33 -10 -58 0 -26 -4 -49 -9 -52 -5 -3 -9 0 -9 5 0 6 -4 11 -10 11 -5 0
-10 -7 -10 -15 0 -9 -9 -25 -20 -37 -11 -12 -19 -27 -19 -32 5 -43 -2 -66 -21
-66 -25 0 -27 -17 -2 -23 13 -3 10 -6 -10 -11 -28 -8 -39 -26 -15 -26 8 0 7
-3 -3 -9 -8 -6 -18 -7 -23 -4 -5 3 -3 -4 4 -15 12 -18 10 -24 -16 -48 -22 -20
-29 -36 -30 -64 0 -21 -2 -37 -5 -35 -3 2 -15 -10 -25 -26 -11 -16 -24 -29
-28 -29 -5 0 -2 -7 7 -15 9 -9 22 -12 33 -8 17 6 17 6 1 -10 -9 -9 -23 -17
-30 -17 -31 0 -53 -59 -28 -75 5 -3 6 -13 3 -22 -6 -15 -5 -16 9 -3 10 10 13
20 7 31 -5 11 -4 16 6 16 8 0 12 -5 9 -11 -6 -11 18 15 62 69 13 16 22 35 19
43 -3 7 0 10 6 7 12 -8 40 26 32 39 -4 5 -2 6 4 3 6 -4 48 44 94 106 46 61 87
115 92 118 4 3 6 90 5 193 -3 173 -4 187 -19 170z m-174 -484 c3 -5 -1 -10 -9
-10 -9 0 -16 5 -16 10 0 6 4 10 9 10 6 0 13 -4 16 -10z m-55 -173 c0 -2 -10
-12 -21 -23 -22 -19 -22 -19 -8 4 12 19 29 30 29 19z"/>
<path d="M11610 1985 c-6 -19 -17 -35 -23 -36 -7 0 -3 -4 8 -9 11 -5 14 -9 8
-9 -7 -1 -13 -6 -13 -12 0 -6 7 -9 14 -6 10 4 13 1 10 -8 -3 -8 -16 -11 -33
-9 -24 4 -29 0 -38 -30 -9 -30 -9 -34 6 -29 9 3 5 -6 -11 -20 -15 -14 -24 -28
-21 -31 10 -10 48 48 45 70 -2 12 2 25 8 29 9 5 10 1 5 -16 -6 -20 -1 -17 28
15 32 34 40 66 16 66 -5 0 -9 5 -9 11 0 6 6 9 13 6 10 -4 12 3 9 24 -2 16 -6
29 -7 29 -2 0 -9 -16 -15 -35z"/>
<path d="M11520 1899 c0 -5 5 -7 10 -4 6 3 10 8 10 11 0 2 -4 4 -10 4 -5 0
-10 -5 -10 -11z"/>
<path d="M9926 1827 c3 -10 9 -15 12 -12 3 3 0 11 -7 18 -10 9 -11 8 -5 -6z"/>
<path d="M11460 1764 c0 -8 -5 -12 -11 -8 -8 4 -8 0 0 -15 7 -11 17 -21 24
-21 8 0 8 3 -2 9 -14 9 -7 31 10 31 6 0 7 -5 3 -12 -4 -7 -3 -8 4 -4 15 9 4
36 -14 36 -8 0 -14 -7 -14 -16z"/>
<path d="M11404 1660 c0 -13 4 -16 10 -10 7 7 7 13 0 20 -6 6 -10 3 -10 -10z"/>
<path d="M9795 1630 c-3 -6 1 -7 9 -4 18 7 21 14 7 14 -6 0 -13 -4 -16 -10z"/>
<path d="M11310 1585 c-7 -8 -9 -15 -6 -15 4 0 14 7 22 15 9 8 11 15 6 15 -5
0 -15 -7 -22 -15z"/>
<path d="M11344 1578 l-19 -23 23 19 c21 18 27 26 19 26 -2 0 -12 -10 -23 -22z"/>
<path d="M9695 1540 c-3 -5 -1 -10 4 -10 6 0 11 5 11 10 0 6 -2 10 -4 10 -3 0
-8 -4 -11 -10z"/>
<path d="M11983 1293 c-10 -17 -10 -22 0 -26 8 -3 6 -10 -8 -21 -13 -10 -15
-15 -7 -16 9 0 2 -15 -17 -39 -17 -21 -31 -46 -31 -55 0 -9 -4 -16 -8 -16 -5
0 -15 -18 -22 -39 -7 -23 -21 -41 -31 -44 -13 -4 -19 -14 -19 -35 0 -22 -10
-39 -40 -66 -22 -20 -40 -40 -40 -46 0 -5 -4 -10 -10 -10 -5 0 -10 -9 -10 -20
0 -11 -6 -20 -14 -20 -8 0 -17 -7 -20 -16 -9 -22 -8 -26 5 -18 7 4 7 -1 -1
-16 -7 -12 -21 -25 -31 -27 -10 -3 -19 -14 -19 -24 0 -11 -4 -19 -10 -19 -5 0
-10 -12 -10 -26 0 -14 -4 -22 -10 -19 -6 4 -7 -1 -3 -11 4 -10 0 -20 -10 -26
-10 -5 -17 -14 -17 -21 0 -7 -21 -34 -45 -62 -25 -27 -52 -65 -60 -82 -8 -18
-19 -33 -24 -33 -6 0 -11 -9 -11 -20 0 -11 -6 -20 -12 -20 -7 0 -23 -18 -36
-40 -12 -22 -29 -40 -37 -40 -8 0 -15 -4 -15 -10 0 -5 5 -10 10 -10 6 0 10 -7
10 -15 0 -9 -9 -15 -25 -15 -14 0 -25 -4 -25 -10 0 -5 7 -10 15 -10 27 0 16
-17 -16 -24 -29 -6 -30 -7 -13 -23 17 -17 16 -18 -19 -32 -20 -7 -37 -20 -37
-27 0 -8 -4 -14 -10 -14 -5 0 -14 -10 -21 -21 -9 -17 -8 -23 2 -30 10 -6 4
-11 -21 -16 -19 -4 -37 -7 -40 -6 -3 1 -6 -6 -6 -16 0 -10 5 -18 11 -19 5 0
27 -5 48 -10 21 -6 109 -10 195 -11 l157 0 100 120 c55 67 110 133 123 148 12
14 42 51 65 81 23 30 47 61 54 68 7 7 28 32 48 56 l35 43 -2 399 c-3 324 -5
395 -15 377z m-683 -1137 c0 -3 -4 -8 -10 -11 -5 -3 -10 -1 -10 4 0 6 5 11 10
11 6 0 10 -2 10 -4z"/>
<path d="M5978 793 c7 -3 16 -2 19 1 4 3 -2 6 -13 5 -11 0 -14 -3 -6 -6z"/>
<path d="M1293 633 c9 -2 23 -2 30 0 6 3 -1 5 -18 5 -16 0 -22 -2 -12 -5z"/>
<path d="M5495 460 c-3 -6 1 -7 9 -4 18 7 21 14 7 14 -6 0 -13 -4 -16 -10z"/>
<path d="M258 223 c7 -3 16 -2 19 1 4 3 -2 6 -13 5 -11 0 -14 -3 -6 -6z"/>
<path d="M358 223 c7 -3 16 -2 19 1 4 3 -2 6 -13 5 -11 0 -14 -3 -6 -6z"/>
<path d="M233 203 c9 -2 23 -2 30 0 6 3 -1 5 -18 5 -16 0 -22 -2 -12 -5z"/>
<path d="M200 181 c0 -6 17 -7 38 -4 51 8 53 13 4 13 -23 0 -42 -4 -42 -9z"/>
</g>
</svg>
